
<?xml version="1.0" encoding="iso-8859-1"?>
<!-- Uploaded to: SVG Repo, www.svgrepo.com, Generator: SVG Repo Mixer Tools -->
<svg version="1.1" id="Layer_1" xmlns="http://www.w3.org/2000/svg" xmlns:xlink="http://www.w3.org/1999/xlink" 
	 viewBox="0 0 512 512" xml:space="preserve">
<path style="fill:#3E3B43;" d="M13.812,297.434V193.775h497.792v260.351c0,22.483-18.226,40.71-40.71,40.71H54.522
	c-22.483,0-40.71-18.226-40.71-40.71v-84.91C13.812,369.216,13.812,297.434,13.812,297.434z"/>
<path style="fill:#2F2D30;" d="M466.387,193.774v214.738c0,22.483-18.226,40.71-40.71,40.71H14.208v4.903
	c0,22.483,18.226,40.71,40.71,40.71H471.29c22.483,0,40.71-18.226,40.71-40.71v-260.35H466.387z"/>
<rect x="13.812" y="193.776" style="fill:#FFCD00;" width="497.788" height="44.123"/>
<path style="fill:#3E3B43;" d="M165.102,73.532l303.976-55.953c13.591-2.502,26.758,6.572,29.26,20.163l11.701,63.568
	L12.115,192.962l-11.7-63.568c-2.502-13.591,6.572-26.758,20.163-29.26l66.77-12.291L165.102,73.532z"/>
<rect x="3.869" y="102.634" transform="matrix(-0.9835 0.181 -0.181 -0.9835 532.4236 201.5676)" style="fill:#FFCD00;" width="506.293" height="44.884"/>
<g>
	<polygon style="fill:#CCA400;" points="140.315,169.364 180.536,116.326 87.348,133.479 47.126,186.517 	"/>
	<polygon style="fill:#CCA400;" points="326.692,135.058 366.913,82.019 273.725,99.173 233.503,152.211 	"/>
	<polygon style="fill:#CCA400;" points="419.88,117.905 460.102,64.867 501.914,57.17 510.038,101.309 	"/>
	<polygon style="fill:#CCA400;" points="140.936,237.902 189.27,193.774 96.106,193.774 47.772,237.902 	"/>
	<polygon style="fill:#CCA400;" points="375.598,193.774 327.264,237.902 234.1,237.902 282.434,193.774 	"/>
	<polygon style="fill:#CCA400;" points="420.428,237.902 468.762,193.774 511.604,193.774 511.604,237.902 	"/>
</g>
<circle style="fill:#CD2A00;" cx="273.725" cy="362.326" r="77.71"/>
<polygon style="fill:#FFFFFF;" points="256.063,321.934 306.902,362.326 256.063,402.717 "/>
<g>
	<path style="fill:#D7D5D9;" d="M154.065,375.041H61.541c-4.312,0-7.809-3.496-7.809-7.809c0-4.312,3.496-7.809,7.809-7.809h92.524
		c4.312,0,7.809,3.496,7.809,7.809C161.873,371.545,158.377,375.041,154.065,375.041z"/>
	<path style="fill:#D7D5D9;" d="M476.504,375.041h-92.525c-4.313,0-7.809-3.496-7.809-7.809c0-4.312,3.495-7.809,7.809-7.809h92.525
		c4.313,0,7.809,3.496,7.809,7.809C484.313,371.545,480.816,375.041,476.504,375.041z"/>
</g>
</svg>